<mxfile host="app.diagrams.net" modified="2024-01-17T10:29:12.941Z" agent="Mozilla/5.0 (Windows NT 10.0; Win64; x64) AppleWebKit/537.36 (KHTML, like Gecko) Chrome/120.0.0.0 Safari/537.36" etag="5hTcyQkHZTfJFliUSHsB" version="22.1.20" type="device">
  <diagram id="prtHgNgQTEPvFCAcTncT" name="Page-1">
    <mxGraphModel dx="640" dy="267" grid="1" gridSize="10" guides="1" tooltips="1" connect="1" arrows="1" fold="1" page="1" pageScale="1" pageWidth="827" pageHeight="1169" math="0" shadow="0">
      <root>
        <mxCell id="0" />
        <mxCell id="1" parent="0" />
        <mxCell id="tPtuIGqPMaxAQIh3LivV-1" value="User" style="swimlane;whiteSpace=wrap;html=1;startSize=30;" vertex="1" parent="1">
          <mxGeometry x="20" y="10" width="200" height="390" as="geometry" />
        </mxCell>
        <mxCell id="tPtuIGqPMaxAQIh3LivV-6" style="edgeStyle=orthogonalEdgeStyle;rounded=0;orthogonalLoop=1;jettySize=auto;html=1;entryX=0.5;entryY=0;entryDx=0;entryDy=0;" edge="1" parent="tPtuIGqPMaxAQIh3LivV-1" source="tPtuIGqPMaxAQIh3LivV-3" target="tPtuIGqPMaxAQIh3LivV-5">
          <mxGeometry relative="1" as="geometry" />
        </mxCell>
        <mxCell id="tPtuIGqPMaxAQIh3LivV-3" value="" style="ellipse;html=1;shape=startState;fillColor=#000000;strokeColor=#ff0000;" vertex="1" parent="tPtuIGqPMaxAQIh3LivV-1">
          <mxGeometry x="80" y="40" width="30" height="30" as="geometry" />
        </mxCell>
        <mxCell id="tPtuIGqPMaxAQIh3LivV-5" value="Membuka Aplikasi" style="rounded=1;whiteSpace=wrap;html=1;" vertex="1" parent="tPtuIGqPMaxAQIh3LivV-1">
          <mxGeometry x="35" y="110" width="120" height="60" as="geometry" />
        </mxCell>
        <mxCell id="tPtuIGqPMaxAQIh3LivV-12" value="Memilih Materi" style="whiteSpace=wrap;html=1;rounded=1;" vertex="1" parent="tPtuIGqPMaxAQIh3LivV-1">
          <mxGeometry x="35" y="230" width="120" height="60" as="geometry" />
        </mxCell>
        <mxCell id="tPtuIGqPMaxAQIh3LivV-2" value="Sistem" style="swimlane;whiteSpace=wrap;html=1;startSize=30;" vertex="1" parent="1">
          <mxGeometry x="220" y="10" width="200" height="390" as="geometry" />
        </mxCell>
        <mxCell id="tPtuIGqPMaxAQIh3LivV-10" value="Menampilkan Daftar Pembelajaran" style="whiteSpace=wrap;html=1;rounded=1;" vertex="1" parent="tPtuIGqPMaxAQIh3LivV-2">
          <mxGeometry x="40" y="110" width="120" height="60" as="geometry" />
        </mxCell>
        <mxCell id="tPtuIGqPMaxAQIh3LivV-11" value="" style="edgeStyle=orthogonalEdgeStyle;rounded=0;orthogonalLoop=1;jettySize=auto;html=1;exitX=1;exitY=0.5;exitDx=0;exitDy=0;" edge="1" parent="tPtuIGqPMaxAQIh3LivV-2" source="tPtuIGqPMaxAQIh3LivV-5" target="tPtuIGqPMaxAQIh3LivV-10">
          <mxGeometry relative="1" as="geometry">
            <mxPoint x="-30" y="130.0285714285714" as="sourcePoint" />
          </mxGeometry>
        </mxCell>
        <mxCell id="tPtuIGqPMaxAQIh3LivV-21" style="edgeStyle=orthogonalEdgeStyle;rounded=0;orthogonalLoop=1;jettySize=auto;html=1;entryX=0.5;entryY=0;entryDx=0;entryDy=0;" edge="1" parent="tPtuIGqPMaxAQIh3LivV-2" source="tPtuIGqPMaxAQIh3LivV-18" target="tPtuIGqPMaxAQIh3LivV-20">
          <mxGeometry relative="1" as="geometry" />
        </mxCell>
        <mxCell id="tPtuIGqPMaxAQIh3LivV-18" value="Menampilkan Ruang Permainan" style="whiteSpace=wrap;html=1;rounded=1;" vertex="1" parent="tPtuIGqPMaxAQIh3LivV-2">
          <mxGeometry x="40" y="230" width="120" height="60" as="geometry" />
        </mxCell>
        <mxCell id="tPtuIGqPMaxAQIh3LivV-20" value="" style="ellipse;html=1;shape=endState;fillColor=#000000;strokeColor=#ff0000;" vertex="1" parent="tPtuIGqPMaxAQIh3LivV-2">
          <mxGeometry x="85" y="330" width="30" height="30" as="geometry" />
        </mxCell>
        <mxCell id="tPtuIGqPMaxAQIh3LivV-13" value="" style="edgeStyle=orthogonalEdgeStyle;rounded=0;orthogonalLoop=1;jettySize=auto;html=1;exitX=0.5;exitY=1;exitDx=0;exitDy=0;" edge="1" parent="1" source="tPtuIGqPMaxAQIh3LivV-10" target="tPtuIGqPMaxAQIh3LivV-12">
          <mxGeometry relative="1" as="geometry" />
        </mxCell>
        <mxCell id="tPtuIGqPMaxAQIh3LivV-19" value="" style="edgeStyle=orthogonalEdgeStyle;rounded=0;orthogonalLoop=1;jettySize=auto;html=1;exitX=1;exitY=0.5;exitDx=0;exitDy=0;" edge="1" parent="1" source="tPtuIGqPMaxAQIh3LivV-12" target="tPtuIGqPMaxAQIh3LivV-18">
          <mxGeometry relative="1" as="geometry">
            <mxPoint x="175" y="260.02857142857135" as="sourcePoint" />
          </mxGeometry>
        </mxCell>
      </root>
    </mxGraphModel>
  </diagram>
</mxfile>
